<svg xmlns="http://www.w3.org/2000/svg" viewBox="0 0 64 64"><path fill-rule="evenodd" d="M50 54h-8v0c-1.11 0-2-.9-2-2V37v0c0-.56.44-1 1-1h1v0c1.1 0 2-.9 2-2V13v0c0-.56.44-1 1-1h5v0c1.1 0 2 .89 2 2v38 0c0 1.1-.9 2-2 2Zm-9-20h-4v0c-.56 0-1-.45-1-1V11v0c0-.56.44-1 1-1h4v0c.55 0 1 .44 1 1v22 0c0 .55-.45 1-1 1Zm-4 2v0c.55 0 1 .44 1 1v15 0c0 1.1-.9 2-2 2h-8v0c-1.11 0-2-.9-2-2V37v0c0-.56.44-1 1-1h1v0c1.1 0 2-.9 2-2V13v0c0-.56.44-1 1-1h2v0c.55 0 1 .44 1 1v21 0c0 1.1.89 2 2 2Zm-10-2h-4v0c-.56 0-1-.45-1-1V11v0c0-.56.44-1 1-1h4v0c.55 0 1 .44 1 1v22 0c0 .55-.45 1-1 1Zm-4 2v0c.55 0 1 .44 1 1v15 0c0 1.1-.9 2-2 2h-8v0c-1.11 0-2-.9-2-2V14v0c0-1.11.89-2 2-2h5v0c.55 0 1 .44 1 1v21 0c0 1.1.89 2 2 2Z" fill="#D44C47" /></svg>