<svg xmlns="http://www.w3.org/2000/svg" viewBox="0 0 64 64"><path fill-rule="evenodd" d="M40 42.03v0c0 1.26-.29 2.51-.85 3.65l-.75 1.48v0c-.26.5-.78.82-1.35.82H26.9 26.9c-.57-.01-1.09-.33-1.35-.83l-.75-1.49h0c-.56-1.14-.85-2.4-.85-3.66l-5.72 5.71h0c-.3.29-.77.29-1.07-.01 -.15-.15-.22-.34-.22-.54v-6.54 0c0-1.07.42-2.08 1.17-2.83l5.53-5.54h0c.18-.19.29-.45.29-.71v-7.62c0-12.69 5-18 8-18s8 5.31 8 18v7.61 0c0 .26.1.51.29.7l5.53 5.53v0c.75.75 1.17 1.76 1.17 2.82v6.53 -.001c-.01.41-.34.74-.76.74 -.2-.01-.39-.08-.53-.22Zm-8 7.96v0c2.34.13 4.13 2.15 3.99 4.5 0 2.85-2.69 7.5-4 7.5 -1.32 0-4-4.65-4-7.5v0c-.14-2.35 1.65-4.37 3.99-4.5Z" fill="#CB912F" /></svg>