<svg xmlns="http://www.w3.org/2000/svg" viewBox="0 0 64 64"><path fill-rule="evenodd" d="M52.02 22.02H19.84v-.001c-.27 0-.52-.11-.71-.3l-2.54-2.54v0c-.76-.76-1.77-1.18-2.83-1.18H11v0c-.56 0-1-.45-1-1v0c0-2.77 2.23-5 5-5h34v0c2.76 0 5 2.23 5 5v3 0c0 1.1-.9 1.99-2 2Zm-26.21-4.2l-2.2-2.2v-.001c-.39-.39-.91-.61-1.45-.6H18.7v0c-.39 0-.71.31-.71.7 0 .18.07.36.2.49l2.19 2.2v0c.38.38.9.6 1.44.6h3.45v-.001c.38-.01.7-.32.7-.71 -.01-.19-.08-.37-.21-.5Zm12 0l-2.2-2.2v-.001c-.39-.39-.91-.61-1.45-.6H30.7h0c-.39 0-.71.31-.71.7 0 .18.07.36.2.49l2.19 2.2V18.4c.38.38.9.6 1.44.6h3.45V19c.38-.01.7-.32.7-.71 -.01-.19-.08-.37-.21-.5Zm12 0l-2.2-2.2v0c-.39-.39-.91-.61-1.45-.6H42.7v0c-.39 0-.71.31-.71.7 0 .18.07.36.2.49l2.19 2.2v-.001c.38.38.9.6 1.44.6h3.45v0c.38-.01.7-.32.7-.71 -.01-.19-.08-.37-.21-.5Zm4.2 29.2v0c0 2.76-2.24 5-5 5h-34v0c-2.77 0-5-2.24-5-5v-26 0c0-.56.44-1 1-1h3.17v0c.26-.01.51.1.7.29l2.53 2.53v0c.75.75 1.76 1.17 2.82 1.17h31.75v0c1.1 0 2 .89 2 2Zm-28.7-20h-3.46v0c-.55-.01-1.07.21-1.45.6l-2.2 2.2h0c-.28.27-.28.71 0 .99 .13.13.31.2.49.2h3.45 -.001c.54 0 1.06-.22 1.44-.6l2.19-2.2v0c.27-.28.27-.72 0-1 -.14-.14-.32-.21-.5-.21Zm12 0h-3.46v0c-.55-.01-1.07.21-1.45.6l-2.2 2.2v0c-.28.27-.28.71 0 .99 .13.13.31.2.49.2h3.45v0c.54 0 1.06-.22 1.44-.6l2.19-2.2h0c.27-.28.27-.72 0-1 -.14-.14-.32-.21-.5-.21Zm12 0h-3.46l0-.001c-.55 0-1.07.21-1.45.6l-2.2 2.2v-.001c-.28.27-.28.71 0 .99 .13.13.31.2.49.2h3.45v0c.54 0 1.06-.22 1.44-.6l2.19-2.2V28.2c.27-.28.27-.72 0-1 -.14-.14-.32-.21-.5-.21Z" fill="#d9730d" /></svg>