<svg xmlns="http://www.w3.org/2000/svg" viewBox="0 0 64 64"><path fill-rule="evenodd" d="M29.15 50.85l0-.001c-3.64-1.9-7.69-2.88-11.79-2.85v0c-2.33.02-4.64.33-6.89.94h-.001c-.59.19-1.23-.14-1.42-.73 -.04-.12-.06-.24-.06-.35V15.23v-.001c-.01-.47.29-.9.73-1.06v-.001c2.46-.77 5.03-1.17 7.61-1.2v-.001c4.62-.06 9.16 1.2 13.09 3.62v0c.34.23.55.62.55 1.04v32.1 0c-.01.68-.57 1.23-1.26 1.23 -.22-.01-.43-.06-.61-.17Zm25.86-35.59v32.61 0c0 .61-.5 1.12-1.12 1.12 -.12 0-.24-.02-.35-.06v-.001c-2.25-.61-4.56-.92-6.89-.95v0c-4.11-.04-8.16.94-11.79 2.84v0c-.6.34-1.36.13-1.7-.47 -.11-.19-.17-.4-.17-.61V17.62h0c-.01-.42.2-.81.55-1.04v0c3.93-2.43 8.47-3.69 13.09-3.63v0c2.58.03 5.14.43 7.61 1.19v0c.44.16.73.58.73 1.05Z" fill="#A6A299" /></svg>