<svg xmlns="http://www.w3.org/2000/svg" viewBox="0 0 64 64"><path fill-rule="evenodd" d="M10.05 53.06l2.01-6.74h0c.37-1.27 1.06-2.43 2-3.36L39.7 17.27v0c.38-.4 1.02-.4 1.41-.01 0 0 0 0 0 0l5.57 5.58h-.001c.39.39.39 1.02 0 1.41L21.02 49.93l-.001-.001c-.94.93-2.09 1.62-3.36 2l-6.73 2.02 -.001-.001c-.4.11-.82-.11-.94-.51 -.05-.15-.05-.3 0-.44Zm40.31-42.19l2.74 2.74v0c1.16 1.16 1.16 3.06 0 4.22l-3.35 3.35v0c-.39.38-1.02.38-1.41 0 -.01-.01-.01-.01-.01-.01l-5.57-5.57v-.001c-.39-.39-.39-1.03 0-1.41l3.34-3.36 -.001 0c1.16-1.17 3.05-1.17 4.21-.01 0 0 0 0 0 0Z" fill="#9F6B53" /></svg>