<svg xmlns="http://www.w3.org/2000/svg" viewBox="0 0 32 32"><g transform="scale(0.5,0.5)" fill="#55534E"><g fill-rule="evenodd"><path d="M45.98 30h10.03L56 30c1.09-.01 1.98.88 1.98 1.98 0 1.09-.89 1.98-1.99 1.98H45.95h-.01c-1.1-.01-1.99-.89-1.99-1.99s.88-1.99 1.98-1.99Z" /><path d="M7.98 30h10.03L18 30c1.09-.01 1.98.88 1.98 1.98 0 1.09-.89 1.98-1.99 1.98H7.95h-.01c-1.1-.01-1.99-.89-1.99-1.99s.88-1.99 1.98-1.99Z" /><path d="M40.54 20.59l7.05-7.05 -.01 0c.76-.79 2.03-.81 2.81-.04 .78.76.8 2.03.03 2.81 -.02.01-.03.02-.04.03l-7.06 7.04 0-.01c-.79.77-2.05.77-2.82-.01 -.78-.78-.78-2.04-.01-2.82Z" /><path d="M13.55 47.57l7.051-7.05 -.01 0c.76-.79 2.03-.81 2.81-.04 .78.76.8 2.03.03 2.81 -.02.01-.03.02-.04.03l-7.06 7.04 -.01 0c-.79.77-2.05.76-2.82-.03 -.77-.78-.77-2.02-.01-2.8Z" /><path d="M32 6l-.01 0c1.1-.01 2 .89 2 2v10 0c0 1.1-.9 2-2 2 -1.11 0-2-.9-2-2V8l0 0c-.01-1.11.89-2 2-2Z" /><path d="M20.6 23.41l-7.051-7.05 0 0c-.78-.79-.76-2.05.02-2.82 .77-.77 2.01-.77 2.79 0l7.05 7.04 -.01-.01c.78.77.79 2.03.02 2.81 -.78.78-2.04.79-2.82.02 -.01-.01-.02-.02-.03-.03Z" /><path d="M45.01 46.97h-4.57l3.41 8.23 0 0c.42 1.02-.07 2.19-1.09 2.61 -1.02.41-2.19-.07-2.61-1.09l-3.55-8.55 -3.2 3.18 0-.01c-.79.78-2.05.78-2.83-.01 -.38-.38-.59-.89-.59-1.42V31.94l0-.01c0-1.11.89-2 2-2 .52 0 1.03.21 1.41.58l12.99 12.97 0 0c.78.77.78 2.04 0 2.82 -.38.37-.89.58-1.42.58Z" /></g></g></svg>